# MagicaVoxel @ ephtracy

# material
mtllib itembox.mtl
usemtl palette

# normals
vn -1 0 0
vn 1 0 0
vn 0 0 1
vn 0 0 -1
vn 0 -1 0
vn 0 1 0

# texcoords
vt 0.0449219 0.5
vt 0.978516 0.5

# verts
v -5.5 0 5.5
v -5.5 0 2.5
v -5.5 0 -2.5
v -5.5 0 -5.5
v -5.5 2 2.5
v -5.5 2 -2.5
v -5.5 3 5.5
v -5.5 3 3.5
v -5.5 3 2.5
v -5.5 3 -2.5
v -5.5 3 -3.5
v -5.5 3 -5.5
v -5.5 8 5.5
v -5.5 8 3.5
v -5.5 8 2.5
v -5.5 8 -2.5
v -5.5 8 -3.5
v -5.5 8 -5.5
v -5.5 9 2.5
v -5.5 9 -2.5
v -5.5 11 5.5
v -5.5 11 2.5
v -5.5 11 -2.5
v -5.5 11 -5.5
v -4.5 2 2.5
v -4.5 2 -2.5
v -4.5 3 3.5
v -4.5 3 2.5
v -4.5 3 -2.5
v -4.5 3 -3.5
v -4.5 8 3.5
v -4.5 8 2.5
v -4.5 8 -2.5
v -4.5 8 -3.5
v -4.5 9 2.5
v -4.5 9 -2.5
v 2.5 0 3.5
v 2.5 0 2.5
v 2.5 0 -2.5
v 2.5 0 -3.5
v 2.5 1 3.5
v 2.5 1 2.5
v 2.5 1 -2.5
v 2.5 1 -3.5
v 2.5 2 5.5
v 2.5 2 4.5
v 2.5 2 -4.5
v 2.5 2 -5.5
v 2.5 3 5.5
v 2.5 3 4.5
v 2.5 3 -4.5
v 2.5 3 -5.5
v 2.5 8 5.5
v 2.5 8 4.5
v 2.5 8 -4.5
v 2.5 8 -5.5
v 2.5 9 5.5
v 2.5 9 4.5
v 2.5 9 -4.5
v 2.5 9 -5.5
v 2.5 10 3.5
v 2.5 10 2.5
v 2.5 10 -2.5
v 2.5 10 -3.5
v 2.5 11 3.5
v 2.5 11 2.5
v 2.5 11 -2.5
v 2.5 11 -3.5
v 3.5 0 2.5
v 3.5 0 -2.5
v 3.5 1 2.5
v 3.5 1 -2.5
v 3.5 3 5.5
v 3.5 3 4.5
v 3.5 3 -4.5
v 3.5 3 -5.5
v 3.5 8 5.5
v 3.5 8 4.5
v 3.5 8 -4.5
v 3.5 8 -5.5
v 3.5 10 2.5
v 3.5 10 -2.5
v 3.5 11 2.5
v 3.5 11 -2.5
v -3.5 0 2.5
v -3.5 0 -2.5
v -3.5 1 2.5
v -3.5 1 -2.5
v -3.5 3 5.5
v -3.5 3 4.5
v -3.5 3 -4.5
v -3.5 3 -5.5
v -3.5 8 5.5
v -3.5 8 4.5
v -3.5 8 -4.5
v -3.5 8 -5.5
v -3.5 10 2.5
v -3.5 10 -2.5
v -3.5 11 2.5
v -3.5 11 -2.5
v -2.5 0 3.5
v -2.5 0 2.5
v -2.5 0 -2.5
v -2.5 0 -3.5
v -2.5 1 3.5
v -2.5 1 2.5
v -2.5 1 -2.5
v -2.5 1 -3.5
v -2.5 2 5.5
v -2.5 2 4.5
v -2.5 2 -4.5
v -2.5 2 -5.5
v -2.5 3 5.5
v -2.5 3 4.5
v -2.5 3 -4.5
v -2.5 3 -5.5
v -2.5 8 5.5
v -2.5 8 4.5
v -2.5 8 -4.5
v -2.5 8 -5.5
v -2.5 9 5.5
v -2.5 9 4.5
v -2.5 9 -4.5
v -2.5 9 -5.5
v -2.5 10 3.5
v -2.5 10 2.5
v -2.5 10 -2.5
v -2.5 10 -3.5
v -2.5 11 3.5
v -2.5 11 2.5
v -2.5 11 -2.5
v -2.5 11 -3.5
v 4.5 2 2.5
v 4.5 2 -2.5
v 4.5 3 3.5
v 4.5 3 2.5
v 4.5 3 -2.5
v 4.5 3 -3.5
v 4.5 8 3.5
v 4.5 8 2.5
v 4.5 8 -2.5
v 4.5 8 -3.5
v 4.5 9 2.5
v 4.5 9 -2.5
v 5.5 0 5.5
v 5.5 0 2.5
v 5.5 0 -2.5
v 5.5 0 -5.5
v 5.5 2 2.5
v 5.5 2 -2.5
v 5.5 3 5.5
v 5.5 3 3.5
v 5.5 3 2.5
v 5.5 3 -2.5
v 5.5 3 -3.5
v 5.5 3 -5.5
v 5.5 8 5.5
v 5.5 8 3.5
v 5.5 8 2.5
v 5.5 8 -2.5
v 5.5 8 -3.5
v 5.5 8 -5.5
v 5.5 9 2.5
v 5.5 9 -2.5
v 5.5 11 5.5
v 5.5 11 2.5
v 5.5 11 -2.5
v 5.5 11 -5.5
v -5.5 0 5.5
v -5.5 3 5.5
v -5.5 8 5.5
v -5.5 11 5.5
v -3.5 3 5.5
v -3.5 8 5.5
v -2.5 0 5.5
v -2.5 2 5.5
v -2.5 3 5.5
v -2.5 8 5.5
v -2.5 9 5.5
v -2.5 11 5.5
v 2.5 0 5.5
v 2.5 2 5.5
v 2.5 3 5.5
v 2.5 8 5.5
v 2.5 9 5.5
v 2.5 11 5.5
v 3.5 3 5.5
v 3.5 8 5.5
v 5.5 0 5.5
v 5.5 3 5.5
v 5.5 8 5.5
v 5.5 11 5.5
v -3.5 3 4.5
v -3.5 8 4.5
v -2.5 2 4.5
v -2.5 3 4.5
v -2.5 8 4.5
v -2.5 9 4.5
v 2.5 2 4.5
v 2.5 3 4.5
v 2.5 8 4.5
v 2.5 9 4.5
v 3.5 3 4.5
v 3.5 8 4.5
v -5.5 2 -2.5
v -5.5 3 -2.5
v -5.5 8 -2.5
v -5.5 9 -2.5
v -4.5 2 -2.5
v -4.5 3 -2.5
v -4.5 8 -2.5
v -4.5 9 -2.5
v -3.5 0 -2.5
v -3.5 1 -2.5
v -3.5 10 -2.5
v -3.5 11 -2.5
v -2.5 0 -2.5
v -2.5 1 -2.5
v -2.5 10 -2.5
v -2.5 11 -2.5
v 2.5 0 -2.5
v 2.5 1 -2.5
v 2.5 10 -2.5
v 2.5 11 -2.5
v 3.5 0 -2.5
v 3.5 1 -2.5
v 3.5 10 -2.5
v 3.5 11 -2.5
v 4.5 2 -2.5
v 4.5 3 -2.5
v 4.5 8 -2.5
v 4.5 9 -2.5
v 5.5 2 -2.5
v 5.5 3 -2.5
v 5.5 8 -2.5
v 5.5 9 -2.5
v -5.5 3 -3.5
v -5.5 8 -3.5
v -4.5 3 -3.5
v -4.5 8 -3.5
v -2.5 0 -3.5
v -2.5 1 -3.5
v -2.5 10 -3.5
v -2.5 11 -3.5
v 2.5 0 -3.5
v 2.5 1 -3.5
v 2.5 10 -3.5
v 2.5 11 -3.5
v 4.5 3 -3.5
v 4.5 8 -3.5
v 5.5 3 -3.5
v 5.5 8 -3.5
v -5.5 3 3.5
v -5.5 8 3.5
v -4.5 3 3.5
v -4.5 8 3.5
v -2.5 0 3.5
v -2.5 1 3.5
v -2.5 10 3.5
v -2.5 11 3.5
v 2.5 0 3.5
v 2.5 1 3.5
v 2.5 10 3.5
v 2.5 11 3.5
v 4.5 3 3.5
v 4.5 8 3.5
v 5.5 3 3.5
v 5.5 8 3.5
v -5.5 2 2.5
v -5.5 3 2.5
v -5.5 8 2.5
v -5.5 9 2.5
v -4.5 2 2.5
v -4.5 3 2.5
v -4.5 8 2.5
v -4.5 9 2.5
v -3.5 0 2.5
v -3.5 1 2.5
v -3.5 10 2.5
v -3.5 11 2.5
v -2.5 0 2.5
v -2.5 1 2.5
v -2.5 10 2.5
v -2.5 11 2.5
v 2.5 0 2.5
v 2.5 1 2.5
v 2.5 10 2.5
v 2.5 11 2.5
v 3.5 0 2.5
v 3.5 1 2.5
v 3.5 10 2.5
v 3.5 11 2.5
v 4.5 2 2.5
v 4.5 3 2.5
v 4.5 8 2.5
v 4.5 9 2.5
v 5.5 2 2.5
v 5.5 3 2.5
v 5.5 8 2.5
v 5.5 9 2.5
v -3.5 3 -4.5
v -3.5 8 -4.5
v -2.5 2 -4.5
v -2.5 3 -4.5
v -2.5 8 -4.5
v -2.5 9 -4.5
v 2.5 2 -4.5
v 2.5 3 -4.5
v 2.5 8 -4.5
v 2.5 9 -4.5
v 3.5 3 -4.5
v 3.5 8 -4.5
v -5.5 0 -5.5
v -5.5 3 -5.5
v -5.5 8 -5.5
v -5.5 11 -5.5
v -3.5 3 -5.5
v -3.5 8 -5.5
v -2.5 0 -5.5
v -2.5 2 -5.5
v -2.5 3 -5.5
v -2.5 8 -5.5
v -2.5 9 -5.5
v -2.5 11 -5.5
v 2.5 0 -5.5
v 2.5 2 -5.5
v 2.5 3 -5.5
v 2.5 8 -5.5
v 2.5 9 -5.5
v 2.5 11 -5.5
v 3.5 3 -5.5
v 3.5 8 -5.5
v 5.5 0 -5.5
v 5.5 3 -5.5
v 5.5 8 -5.5
v 5.5 11 -5.5
v -5.5 0 5.5
v -2.5 0 5.5
v 2.5 0 5.5
v 5.5 0 5.5
v -2.5 0 3.5
v 2.5 0 3.5
v -5.5 0 2.5
v -3.5 0 2.5
v -2.5 0 2.5
v 2.5 0 2.5
v 3.5 0 2.5
v 5.5 0 2.5
v -5.5 0 -2.5
v -3.5 0 -2.5
v -2.5 0 -2.5
v 2.5 0 -2.5
v 3.5 0 -2.5
v 5.5 0 -2.5
v -2.5 0 -3.5
v 2.5 0 -3.5
v -5.5 0 -5.5
v -2.5 0 -5.5
v 2.5 0 -5.5
v 5.5 0 -5.5
v -2.5 1 3.5
v 2.5 1 3.5
v -3.5 1 2.5
v -2.5 1 2.5
v 2.5 1 2.5
v 3.5 1 2.5
v -3.5 1 -2.5
v -2.5 1 -2.5
v 2.5 1 -2.5
v 3.5 1 -2.5
v -2.5 1 -3.5
v 2.5 1 -3.5
v -3.5 8 5.5
v -2.5 8 5.5
v 2.5 8 5.5
v 3.5 8 5.5
v -3.5 8 4.5
v -2.5 8 4.5
v 2.5 8 4.5
v 3.5 8 4.5
v -5.5 8 3.5
v -4.5 8 3.5
v 4.5 8 3.5
v 5.5 8 3.5
v -5.5 8 2.5
v -4.5 8 2.5
v 4.5 8 2.5
v 5.5 8 2.5
v -5.5 8 -2.5
v -4.5 8 -2.5
v 4.5 8 -2.5
v 5.5 8 -2.5
v -5.5 8 -3.5
v -4.5 8 -3.5
v 4.5 8 -3.5
v 5.5 8 -3.5
v -3.5 8 -4.5
v -2.5 8 -4.5
v 2.5 8 -4.5
v 3.5 8 -4.5
v -3.5 8 -5.5
v -2.5 8 -5.5
v 2.5 8 -5.5
v 3.5 8 -5.5
v -2.5 9 5.5
v 2.5 9 5.5
v -2.5 9 4.5
v 2.5 9 4.5
v -5.5 9 2.5
v -4.5 9 2.5
v 4.5 9 2.5
v 5.5 9 2.5
v -5.5 9 -2.5
v -4.5 9 -2.5
v 4.5 9 -2.5
v 5.5 9 -2.5
v -2.5 9 -4.5
v 2.5 9 -4.5
v -2.5 9 -5.5
v 2.5 9 -5.5
v -2.5 2 5.5
v 2.5 2 5.5
v -2.5 2 4.5
v 2.5 2 4.5
v -5.5 2 2.5
v -4.5 2 2.5
v 4.5 2 2.5
v 5.5 2 2.5
v -5.5 2 -2.5
v -4.5 2 -2.5
v 4.5 2 -2.5
v 5.5 2 -2.5
v -2.5 2 -4.5
v 2.5 2 -4.5
v -2.5 2 -5.5
v 2.5 2 -5.5
v -3.5 3 5.5
v -2.5 3 5.5
v 2.5 3 5.5
v 3.5 3 5.5
v -3.5 3 4.5
v -2.5 3 4.5
v 2.5 3 4.5
v 3.5 3 4.5
v -5.5 3 3.5
v -4.5 3 3.5
v 4.5 3 3.5
v 5.5 3 3.5
v -5.5 3 2.5
v -4.5 3 2.5
v 4.5 3 2.5
v 5.5 3 2.5
v -5.5 3 -2.5
v -4.5 3 -2.5
v 4.5 3 -2.5
v 5.5 3 -2.5
v -5.5 3 -3.5
v -4.5 3 -3.5
v 4.5 3 -3.5
v 5.5 3 -3.5
v -3.5 3 -4.5
v -2.5 3 -4.5
v 2.5 3 -4.5
v 3.5 3 -4.5
v -3.5 3 -5.5
v -2.5 3 -5.5
v 2.5 3 -5.5
v 3.5 3 -5.5
v -2.5 10 3.5
v 2.5 10 3.5
v -3.5 10 2.5
v -2.5 10 2.5
v 2.5 10 2.5
v 3.5 10 2.5
v -3.5 10 -2.5
v -2.5 10 -2.5
v 2.5 10 -2.5
v 3.5 10 -2.5
v -2.5 10 -3.5
v 2.5 10 -3.5
v -5.5 11 5.5
v -2.5 11 5.5
v 2.5 11 5.5
v 5.5 11 5.5
v -2.5 11 3.5
v 2.5 11 3.5
v -5.5 11 2.5
v -3.5 11 2.5
v -2.5 11 2.5
v 2.5 11 2.5
v 3.5 11 2.5
v 5.5 11 2.5
v -5.5 11 -2.5
v -3.5 11 -2.5
v -2.5 11 -2.5
v 2.5 11 -2.5
v 3.5 11 -2.5
v 5.5 11 -2.5
v -2.5 11 -3.5
v 2.5 11 -3.5
v -5.5 11 -5.5
v -2.5 11 -5.5
v 2.5 11 -5.5
v 5.5 11 -5.5

# faces
f 5/2/1 2/2/1 1/2/1
f 5/1/1 3/1/1 2/1/1
f 6/2/1 4/2/1 3/2/1
f 6/1/1 3/1/1 5/1/1
f 7/2/1 5/2/1 1/2/1
f 8/2/1 5/2/1 7/2/1
f 9/2/1 5/2/1 8/2/1
f 10/2/1 4/2/1 6/2/1
f 11/2/1 4/2/1 10/2/1
f 12/2/1 4/2/1 11/2/1
f 13/1/1 8/1/1 7/1/1
f 14/1/1 8/1/1 13/1/1
f 17/1/1 12/1/1 11/1/1
f 18/1/1 12/1/1 17/1/1
f 19/2/1 15/2/1 14/2/1
f 19/2/1 14/2/1 13/2/1
f 20/2/1 18/2/1 17/2/1
f 20/2/1 17/2/1 16/2/1
f 21/2/1 19/2/1 13/2/1
f 22/1/1 20/1/1 19/1/1
f 22/2/1 19/2/1 21/2/1
f 23/2/1 18/2/1 20/2/1
f 23/1/1 20/1/1 22/1/1
f 24/2/1 18/2/1 23/2/1
f 28/2/1 26/2/1 25/2/1
f 29/2/1 26/2/1 28/2/1
f 31/2/1 28/2/1 27/2/1
f 31/2/1 30/2/1 29/2/1
f 31/2/1 29/2/1 28/2/1
f 32/2/1 30/2/1 31/2/1
f 33/2/1 30/2/1 32/2/1
f 34/2/1 30/2/1 33/2/1
f 35/2/1 33/2/1 32/2/1
f 36/2/1 33/2/1 35/2/1
f 41/2/1 38/2/1 37/2/1
f 42/2/1 38/2/1 41/2/1
f 43/2/1 40/2/1 39/2/1
f 44/2/1 40/2/1 43/2/1
f 49/2/1 46/2/1 45/2/1
f 50/2/1 46/2/1 49/2/1
f 51/2/1 48/2/1 47/2/1
f 52/2/1 48/2/1 51/2/1
f 57/2/1 54/2/1 53/2/1
f 58/2/1 54/2/1 57/2/1
f 59/2/1 56/2/1 55/2/1
f 60/2/1 56/2/1 59/2/1
f 65/2/1 62/2/1 61/2/1
f 66/2/1 62/2/1 65/2/1
f 67/2/1 64/2/1 63/2/1
f 68/2/1 64/2/1 67/2/1
f 71/1/1 70/1/1 69/1/1
f 72/1/1 70/1/1 71/1/1
f 77/1/1 74/1/1 73/1/1
f 78/1/1 74/1/1 77/1/1
f 79/1/1 76/1/1 75/1/1
f 80/1/1 76/1/1 79/1/1
f 83/1/1 82/1/1 81/1/1
f 84/1/1 82/1/1 83/1/1
f 85/1/2 86/1/2 87/1/2
f 87/1/2 86/1/2 88/1/2
f 89/1/2 90/1/2 93/1/2
f 93/1/2 90/1/2 94/1/2
f 91/1/2 92/1/2 95/1/2
f 95/1/2 92/1/2 96/1/2
f 97/1/2 98/1/2 99/1/2
f 99/1/2 98/1/2 100/1/2
f 101/2/2 102/2/2 105/2/2
f 105/2/2 102/2/2 106/2/2
f 103/2/2 104/2/2 107/2/2
f 107/2/2 104/2/2 108/2/2
f 109/2/2 110/2/2 113/2/2
f 113/2/2 110/2/2 114/2/2
f 111/2/2 112/2/2 115/2/2
f 115/2/2 112/2/2 116/2/2
f 117/2/2 118/2/2 121/2/2
f 121/2/2 118/2/2 122/2/2
f 119/2/2 120/2/2 123/2/2
f 123/2/2 120/2/2 124/2/2
f 125/2/2 126/2/2 129/2/2
f 129/2/2 126/2/2 130/2/2
f 127/2/2 128/2/2 131/2/2
f 131/2/2 128/2/2 132/2/2
f 133/2/2 134/2/2 136/2/2
f 136/2/2 134/2/2 137/2/2
f 135/2/2 136/2/2 139/2/2
f 137/2/2 138/2/2 139/2/2
f 136/2/2 137/2/2 139/2/2
f 139/2/2 138/2/2 140/2/2
f 140/2/2 138/2/2 141/2/2
f 141/2/2 138/2/2 142/2/2
f 140/2/2 141/2/2 143/2/2
f 143/2/2 141/2/2 144/2/2
f 145/2/2 146/2/2 149/2/2
f 146/1/2 147/1/2 149/1/2
f 147/2/2 148/2/2 150/2/2
f 149/1/2 147/1/2 150/1/2
f 145/2/2 149/2/2 151/2/2
f 151/2/2 149/2/2 152/2/2
f 152/2/2 149/2/2 153/2/2
f 150/2/2 148/2/2 154/2/2
f 154/2/2 148/2/2 155/2/2
f 155/2/2 148/2/2 156/2/2
f 151/1/2 152/1/2 157/1/2
f 157/1/2 152/1/2 158/1/2
f 155/1/2 156/1/2 161/1/2
f 161/1/2 156/1/2 162/1/2
f 158/2/2 159/2/2 163/2/2
f 157/2/2 158/2/2 163/2/2
f 161/2/2 162/2/2 164/2/2
f 160/2/2 161/2/2 164/2/2
f 157/2/2 163/2/2 165/2/2
f 163/1/2 164/1/2 166/1/2
f 165/2/2 163/2/2 166/2/2
f 164/2/2 162/2/2 167/2/2
f 166/1/2 164/1/2 167/1/2
f 167/2/2 162/2/2 168/2/2
f 173/2/3 170/2/3 169/2/3
f 173/1/3 171/1/3 170/1/3
f 174/2/3 172/2/3 171/2/3
f 174/1/3 171/1/3 173/1/3
f 175/2/3 173/2/3 169/2/3
f 176/2/3 173/2/3 175/2/3
f 177/2/3 173/2/3 176/2/3
f 178/2/3 172/2/3 174/2/3
f 179/2/3 172/2/3 178/2/3
f 180/2/3 172/2/3 179/2/3
f 181/1/3 176/1/3 175/1/3
f 182/1/3 176/1/3 181/1/3
f 185/1/3 180/1/3 179/1/3
f 186/1/3 180/1/3 185/1/3
f 187/2/3 183/2/3 182/2/3
f 187/2/3 182/2/3 181/2/3
f 188/2/3 186/2/3 185/2/3
f 188/2/3 185/2/3 184/2/3
f 189/2/3 187/2/3 181/2/3
f 190/1/3 188/1/3 187/1/3
f 190/2/3 187/2/3 189/2/3
f 191/2/3 186/2/3 188/2/3
f 191/1/3 188/1/3 190/1/3
f 192/2/3 186/2/3 191/2/3
f 196/2/3 194/2/3 193/2/3
f 197/2/3 194/2/3 196/2/3
f 199/2/3 196/2/3 195/2/3
f 199/2/3 198/2/3 197/2/3
f 199/2/3 197/2/3 196/2/3
f 200/2/3 198/2/3 199/2/3
f 201/2/3 198/2/3 200/2/3
f 202/2/3 198/2/3 201/2/3
f 203/2/3 201/2/3 200/2/3
f 204/2/3 201/2/3 203/2/3
f 209/2/3 206/2/3 205/2/3
f 210/2/3 206/2/3 209/2/3
f 211/2/3 208/2/3 207/2/3
f 212/2/3 208/2/3 211/2/3
f 217/2/3 214/2/3 213/2/3
f 218/2/3 214/2/3 217/2/3
f 219/2/3 216/2/3 215/2/3
f 220/2/3 216/2/3 219/2/3
f 225/2/3 222/2/3 221/2/3
f 226/2/3 222/2/3 225/2/3
f 227/2/3 224/2/3 223/2/3
f 228/2/3 224/2/3 227/2/3
f 233/2/3 230/2/3 229/2/3
f 234/2/3 230/2/3 233/2/3
f 235/2/3 232/2/3 231/2/3
f 236/2/3 232/2/3 235/2/3
f 239/1/3 238/1/3 237/1/3
f 240/1/3 238/1/3 239/1/3
f 245/1/3 242/1/3 241/1/3
f 246/1/3 242/1/3 245/1/3
f 247/1/3 244/1/3 243/1/3
f 248/1/3 244/1/3 247/1/3
f 251/1/3 250/1/3 249/1/3
f 252/1/3 250/1/3 251/1/3
f 253/1/4 254/1/4 255/1/4
f 255/1/4 254/1/4 256/1/4
f 257/1/4 258/1/4 261/1/4
f 261/1/4 258/1/4 262/1/4
f 259/1/4 260/1/4 263/1/4
f 263/1/4 260/1/4 264/1/4
f 265/1/4 266/1/4 267/1/4
f 267/1/4 266/1/4 268/1/4
f 269/2/4 270/2/4 273/2/4
f 273/2/4 270/2/4 274/2/4
f 271/2/4 272/2/4 275/2/4
f 275/2/4 272/2/4 276/2/4
f 277/2/4 278/2/4 281/2/4
f 281/2/4 278/2/4 282/2/4
f 279/2/4 280/2/4 283/2/4
f 283/2/4 280/2/4 284/2/4
f 285/2/4 286/2/4 289/2/4
f 289/2/4 286/2/4 290/2/4
f 287/2/4 288/2/4 291/2/4
f 291/2/4 288/2/4 292/2/4
f 293/2/4 294/2/4 297/2/4
f 297/2/4 294/2/4 298/2/4
f 295/2/4 296/2/4 299/2/4
f 299/2/4 296/2/4 300/2/4
f 301/2/4 302/2/4 304/2/4
f 304/2/4 302/2/4 305/2/4
f 303/2/4 304/2/4 307/2/4
f 305/2/4 306/2/4 307/2/4
f 304/2/4 305/2/4 307/2/4
f 307/2/4 306/2/4 308/2/4
f 308/2/4 306/2/4 309/2/4
f 309/2/4 306/2/4 310/2/4
f 308/2/4 309/2/4 311/2/4
f 311/2/4 309/2/4 312/2/4
f 313/2/4 314/2/4 317/2/4
f 314/1/4 315/1/4 317/1/4
f 315/2/4 316/2/4 318/2/4
f 317/1/4 315/1/4 318/1/4
f 313/2/4 317/2/4 319/2/4
f 319/2/4 317/2/4 320/2/4
f 320/2/4 317/2/4 321/2/4
f 318/2/4 316/2/4 322/2/4
f 322/2/4 316/2/4 323/2/4
f 323/2/4 316/2/4 324/2/4
f 319/1/4 320/1/4 325/1/4
f 325/1/4 320/1/4 326/1/4
f 323/1/4 324/1/4 329/1/4
f 329/1/4 324/1/4 330/1/4
f 326/2/4 327/2/4 331/2/4
f 325/2/4 326/2/4 331/2/4
f 329/2/4 330/2/4 332/2/4
f 328/2/4 329/2/4 332/2/4
f 325/2/4 331/2/4 333/2/4
f 331/1/4 332/1/4 334/1/4
f 333/2/4 331/2/4 334/2/4
f 332/2/4 330/2/4 335/2/4
f 334/1/4 332/1/4 335/1/4
f 335/2/4 330/2/4 336/2/4
f 341/2/5 338/2/5 337/2/5
f 341/1/5 339/1/5 338/1/5
f 342/2/5 340/2/5 339/2/5
f 342/1/5 339/1/5 341/1/5
f 343/2/5 341/2/5 337/2/5
f 344/2/5 341/2/5 343/2/5
f 345/2/5 341/2/5 344/2/5
f 346/2/5 340/2/5 342/2/5
f 347/2/5 340/2/5 346/2/5
f 348/2/5 340/2/5 347/2/5
f 349/1/5 344/1/5 343/1/5
f 350/1/5 344/1/5 349/1/5
f 353/1/5 348/1/5 347/1/5
f 354/1/5 348/1/5 353/1/5
f 355/2/5 351/2/5 350/2/5
f 355/2/5 350/2/5 349/2/5
f 356/2/5 354/2/5 353/2/5
f 356/2/5 353/2/5 352/2/5
f 357/2/5 355/2/5 349/2/5
f 358/1/5 356/1/5 355/1/5
f 358/2/5 355/2/5 357/2/5
f 359/2/5 354/2/5 356/2/5
f 359/1/5 356/1/5 358/1/5
f 360/2/5 354/2/5 359/2/5
f 364/2/5 362/2/5 361/2/5
f 365/2/5 362/2/5 364/2/5
f 367/2/5 364/2/5 363/2/5
f 367/2/5 366/2/5 365/2/5
f 367/2/5 365/2/5 364/2/5
f 368/2/5 366/2/5 367/2/5
f 369/2/5 366/2/5 368/2/5
f 370/2/5 366/2/5 369/2/5
f 371/2/5 369/2/5 368/2/5
f 372/2/5 369/2/5 371/2/5
f 377/2/5 374/2/5 373/2/5
f 378/2/5 374/2/5 377/2/5
f 379/2/5 376/2/5 375/2/5
f 380/2/5 376/2/5 379/2/5
f 385/2/5 382/2/5 381/2/5
f 386/2/5 382/2/5 385/2/5
f 387/2/5 384/2/5 383/2/5
f 388/2/5 384/2/5 387/2/5
f 393/2/5 390/2/5 389/2/5
f 394/2/5 390/2/5 393/2/5
f 395/2/5 392/2/5 391/2/5
f 396/2/5 392/2/5 395/2/5
f 401/2/5 398/2/5 397/2/5
f 402/2/5 398/2/5 401/2/5
f 403/2/5 400/2/5 399/2/5
f 404/2/5 400/2/5 403/2/5
f 407/1/5 406/1/5 405/1/5
f 408/1/5 406/1/5 407/1/5
f 413/1/5 410/1/5 409/1/5
f 414/1/5 410/1/5 413/1/5
f 415/1/5 412/1/5 411/1/5
f 416/1/5 412/1/5 415/1/5
f 419/1/5 418/1/5 417/1/5
f 420/1/5 418/1/5 419/1/5
f 421/1/6 422/1/6 423/1/6
f 423/1/6 422/1/6 424/1/6
f 425/1/6 426/1/6 429/1/6
f 429/1/6 426/1/6 430/1/6
f 427/1/6 428/1/6 431/1/6
f 431/1/6 428/1/6 432/1/6
f 433/1/6 434/1/6 435/1/6
f 435/1/6 434/1/6 436/1/6
f 437/2/6 438/2/6 441/2/6
f 441/2/6 438/2/6 442/2/6
f 439/2/6 440/2/6 443/2/6
f 443/2/6 440/2/6 444/2/6
f 445/2/6 446/2/6 449/2/6
f 449/2/6 446/2/6 450/2/6
f 447/2/6 448/2/6 451/2/6
f 451/2/6 448/2/6 452/2/6
f 453/2/6 454/2/6 457/2/6
f 457/2/6 454/2/6 458/2/6
f 455/2/6 456/2/6 459/2/6
f 459/2/6 456/2/6 460/2/6
f 461/2/6 462/2/6 465/2/6
f 465/2/6 462/2/6 466/2/6
f 463/2/6 464/2/6 467/2/6
f 467/2/6 464/2/6 468/2/6
f 469/2/6 470/2/6 472/2/6
f 472/2/6 470/2/6 473/2/6
f 471/2/6 472/2/6 475/2/6
f 473/2/6 474/2/6 475/2/6
f 472/2/6 473/2/6 475/2/6
f 475/2/6 474/2/6 476/2/6
f 476/2/6 474/2/6 477/2/6
f 477/2/6 474/2/6 478/2/6
f 476/2/6 477/2/6 479/2/6
f 479/2/6 477/2/6 480/2/6
f 481/2/6 482/2/6 485/2/6
f 482/1/6 483/1/6 485/1/6
f 483/2/6 484/2/6 486/2/6
f 485/1/6 483/1/6 486/1/6
f 481/2/6 485/2/6 487/2/6
f 487/2/6 485/2/6 488/2/6
f 488/2/6 485/2/6 489/2/6
f 486/2/6 484/2/6 490/2/6
f 490/2/6 484/2/6 491/2/6
f 491/2/6 484/2/6 492/2/6
f 487/1/6 488/1/6 493/1/6
f 493/1/6 488/1/6 494/1/6
f 491/1/6 492/1/6 497/1/6
f 497/1/6 492/1/6 498/1/6
f 494/2/6 495/2/6 499/2/6
f 493/2/6 494/2/6 499/2/6
f 497/2/6 498/2/6 500/2/6
f 496/2/6 497/2/6 500/2/6
f 493/2/6 499/2/6 501/2/6
f 499/1/6 500/1/6 502/1/6
f 501/2/6 499/2/6 502/2/6
f 500/2/6 498/2/6 503/2/6
f 502/1/6 500/1/6 503/1/6
f 503/2/6 498/2/6 504/2/6
