# MagicaVoxel @ ephtracy

# material
mtllib stormrider.mtl
usemtl palette

# normals
vn -1 0 0
vn 1 0 0
vn 0 0 1
vn 0 0 -1
vn 0 -1 0
vn 0 1 0

# texcoords
vt 0.0292969 0.5
vt 0.861328 0.5
vt 0.978516 0.5
vt 0.982422 0.5

# verts
v -5.5 2 -3
v -5.5 2 -6
v -5.5 3 2
v -5.5 3 -3
v -5.5 5 -1
v -5.5 5 -3
v -5.5 6 2
v -5.5 6 -1
v -5.5 7 -3
v -5.5 7 -6
v -3.5 0 5
v -3.5 0 4
v -3.5 0 -2
v -3.5 3 4
v -3.5 3 2
v -3.5 3 -2
v -3.5 6 2
v -3.5 6 -0
v -3.5 8 5
v -3.5 8 -0
v -2.5 0 6
v -2.5 0 5
v -2.5 8 5
v -2.5 8 -0
v -2.5 8 -1
v -2.5 9 6
v -2.5 9 -1
v -1.5 5 -0
v -1.5 5 -1
v -1.5 7 -0
v -1.5 7 -1
v 1.5 0 -1
v 1.5 0 -2
v 1.5 2 -3
v 1.5 2 -6
v 1.5 5 -1
v 1.5 5 -2
v 1.5 7 -3
v 1.5 7 -6
v 3.5 3 -2
v 3.5 3 -3
v 3.5 5 -0
v 3.5 5 -1
v 3.5 5 -2
v 3.5 5 -3
v 3.5 6 -0
v 3.5 6 -1
v -3.5 3 -2
v -3.5 3 -3
v -3.5 5 -0
v -3.5 5 -1
v -3.5 5 -2
v -3.5 5 -3
v -3.5 6 -0
v -3.5 6 -1
v -1.5 0 -1
v -1.5 0 -2
v -1.5 2 -3
v -1.5 2 -6
v -1.5 5 -1
v -1.5 5 -2
v -1.5 7 -3
v -1.5 7 -6
v 1.5 5 -0
v 1.5 5 -1
v 1.5 7 -0
v 1.5 7 -1
v 2.5 0 6
v 2.5 0 5
v 2.5 8 5
v 2.5 8 -0
v 2.5 8 -1
v 2.5 9 6
v 2.5 9 -1
v 3.5 0 5
v 3.5 0 4
v 3.5 0 -2
v 3.5 3 4
v 3.5 3 2
v 3.5 3 -2
v 3.5 6 2
v 3.5 6 -0
v 3.5 8 5
v 3.5 8 -0
v 5.5 2 -3
v 5.5 2 -6
v 5.5 3 2
v 5.5 3 -3
v 5.5 5 -1
v 5.5 5 -3
v 5.5 6 2
v 5.5 6 -1
v 5.5 7 -3
v 5.5 7 -6
v -2.5 0 6
v -2.5 9 6
v 2.5 0 6
v 2.5 9 6
v -3.5 0 5
v -3.5 8 5
v -2.5 0 5
v -2.5 8 5
v 2.5 0 5
v 2.5 8 5
v 3.5 0 5
v 3.5 8 5
v -5.5 3 2
v -5.5 6 2
v -3.5 3 2
v -3.5 6 2
v 3.5 3 2
v 3.5 6 2
v 5.5 3 2
v 5.5 6 2
v -5.5 2 -3
v -5.5 3 -3
v -5.5 5 -3
v -5.5 7 -3
v -3.5 3 -3
v -3.5 5 -3
v -1.5 2 -3
v -1.5 7 -3
v 1.5 2 -3
v 1.5 7 -3
v 3.5 3 -3
v 3.5 5 -3
v 5.5 2 -3
v 5.5 3 -3
v 5.5 5 -3
v 5.5 7 -3
v -3.5 5 -0
v -3.5 6 -0
v -3.5 8 -0
v -2.5 8 -0
v -1.5 5 -0
v -1.5 7 -0
v 1.5 5 -0
v 1.5 7 -0
v 2.5 8 -0
v 3.5 5 -0
v 3.5 6 -0
v 3.5 8 -0
v -5.5 5 -1
v -5.5 6 -1
v -3.5 5 -1
v -3.5 6 -1
v -2.5 8 -1
v -2.5 9 -1
v -1.5 0 -1
v -1.5 5 -1
v -1.5 7 -1
v 1.5 0 -1
v 1.5 5 -1
v 1.5 7 -1
v 2.5 8 -1
v 2.5 9 -1
v 3.5 5 -1
v 3.5 6 -1
v 5.5 5 -1
v 5.5 6 -1
v -3.5 0 -2
v -3.5 3 -2
v -3.5 5 -2
v -1.5 0 -2
v -1.5 5 -2
v 1.5 0 -2
v 1.5 5 -2
v 3.5 0 -2
v 3.5 3 -2
v 3.5 5 -2
v -5.5 2 -6
v -5.5 7 -6
v -4.5 2 -6
v -4.5 6 -6
v -2.5 2 -6
v -2.5 6 -6
v -1.5 2 -6
v -1.5 7 -6
v 1.5 2 -6
v 1.5 7 -6
v 2.5 2 -6
v 2.5 6 -6
v 4.5 2 -6
v 4.5 6 -6
v 5.5 2 -6
v 5.5 7 -6
v -2.5 0 6
v 2.5 0 6
v -3.5 0 5
v -2.5 0 5
v 2.5 0 5
v 3.5 0 5
v -3.5 0 4
v -2.5 0 4
v 2.5 0 4
v 3.5 0 4
v -2.5 0 -1
v -1.5 0 -1
v 1.5 0 -1
v 2.5 0 -1
v -3.5 0 -2
v -1.5 0 -2
v 1.5 0 -2
v 3.5 0 -2
v -5.5 2 -3
v -1.5 2 -3
v 1.5 2 -3
v 5.5 2 -3
v -4.5 2 -5
v -2.5 2 -5
v 2.5 2 -5
v 4.5 2 -5
v -5.5 2 -6
v -4.5 2 -6
v -2.5 2 -6
v -1.5 2 -6
v 1.5 2 -6
v 2.5 2 -6
v 4.5 2 -6
v 5.5 2 -6
v -5.5 3 2
v -3.5 3 2
v 3.5 3 2
v 5.5 3 2
v -3.5 3 -2
v 3.5 3 -2
v -5.5 3 -3
v -3.5 3 -3
v 3.5 3 -3
v 5.5 3 -3
v -2.5 8 -0
v 2.5 8 -0
v -2.5 8 -1
v 2.5 8 -1
v -3.5 5 -0
v -1.5 5 -0
v 1.5 5 -0
v 3.5 5 -0
v -5.5 5 -1
v -3.5 5 -1
v -1.5 5 -1
v 1.5 5 -1
v 3.5 5 -1
v 5.5 5 -1
v -3.5 5 -2
v -1.5 5 -2
v 1.5 5 -2
v 3.5 5 -2
v -5.5 5 -3
v -3.5 5 -3
v 3.5 5 -3
v 5.5 5 -3
v -5.5 6 2
v -3.5 6 2
v 3.5 6 2
v 5.5 6 2
v -3.5 6 -0
v 3.5 6 -0
v -5.5 6 -1
v -3.5 6 -1
v 3.5 6 -1
v 5.5 6 -1
v -1.5 7 -0
v 1.5 7 -0
v -1.5 7 -1
v 1.5 7 -1
v -5.5 7 -3
v -1.5 7 -3
v 1.5 7 -3
v 5.5 7 -3
v -5.5 7 -6
v -1.5 7 -6
v 1.5 7 -6
v 5.5 7 -6
v -3.5 8 5
v -2.5 8 5
v 2.5 8 5
v 3.5 8 5
v -3.5 8 -0
v -2.5 8 -0
v 2.5 8 -0
v 3.5 8 -0
v -2.5 9 6
v 2.5 9 6
v -2.5 9 -1
v 2.5 9 -1

# faces
f 4/3/1 2/3/1 1/3/1
f 5/4/1 4/4/1 3/4/1
f 6/3/1 2/3/1 4/3/1
f 6/4/1 4/4/1 5/4/1
f 7/4/1 5/4/1 3/4/1
f 8/4/1 5/4/1 7/4/1
f 9/3/1 2/3/1 6/3/1
f 10/3/1 2/3/1 9/3/1
f 14/3/1 12/3/1 11/3/1
f 14/4/1 13/4/1 12/4/1
f 15/4/1 13/4/1 14/4/1
f 16/4/1 13/4/1 15/4/1
f 17/3/1 15/3/1 14/3/1
f 19/3/1 14/3/1 11/3/1
f 19/3/1 18/3/1 17/3/1
f 19/3/1 17/3/1 14/3/1
f 20/3/1 18/3/1 19/3/1
f 23/2/1 22/2/1 21/2/1
f 26/2/1 23/2/1 21/2/1
f 26/2/1 25/2/1 24/2/1
f 26/2/1 24/2/1 23/2/1
f 27/2/1 25/2/1 26/2/1
f 30/3/1 29/3/1 28/3/1
f 31/3/1 29/3/1 30/3/1
f 36/4/1 33/4/1 32/4/1
f 37/4/1 33/4/1 36/4/1
f 38/3/1 35/3/1 34/3/1
f 39/3/1 35/3/1 38/3/1
f 44/4/1 41/4/1 40/4/1
f 45/4/1 41/4/1 44/4/1
f 46/4/1 43/4/1 42/4/1
f 47/4/1 43/4/1 46/4/1
f 48/4/2 49/4/2 52/4/2
f 52/4/2 49/4/2 53/4/2
f 50/4/2 51/4/2 54/4/2
f 54/4/2 51/4/2 55/4/2
f 56/4/2 57/4/2 60/4/2
f 60/4/2 57/4/2 61/4/2
f 58/3/2 59/3/2 62/3/2
f 62/3/2 59/3/2 63/3/2
f 64/3/2 65/3/2 66/3/2
f 66/3/2 65/3/2 67/3/2
f 68/2/2 69/2/2 70/2/2
f 68/2/2 70/2/2 73/2/2
f 71/2/2 72/2/2 73/2/2
f 70/2/2 71/2/2 73/2/2
f 73/2/2 72/2/2 74/2/2
f 75/3/2 76/3/2 78/3/2
f 76/4/2 77/4/2 78/4/2
f 78/4/2 77/4/2 79/4/2
f 79/4/2 77/4/2 80/4/2
f 78/3/2 79/3/2 81/3/2
f 75/3/2 78/3/2 83/3/2
f 81/3/2 82/3/2 83/3/2
f 78/3/2 81/3/2 83/3/2
f 83/3/2 82/3/2 84/3/2
f 85/3/2 86/3/2 88/3/2
f 87/4/2 88/4/2 89/4/2
f 88/3/2 86/3/2 90/3/2
f 89/4/2 88/4/2 90/4/2
f 87/4/2 89/4/2 91/4/2
f 91/4/2 89/4/2 92/4/2
f 90/3/2 86/3/2 93/3/2
f 93/3/2 86/3/2 94/3/2
f 97/2/3 96/2/3 95/2/3
f 98/2/3 96/2/3 97/2/3
f 101/3/3 100/3/3 99/3/3
f 102/3/3 100/3/3 101/3/3
f 105/3/3 104/3/3 103/3/3
f 106/3/3 104/3/3 105/3/3
f 109/4/3 108/4/3 107/4/3
f 110/4/3 108/4/3 109/4/3
f 113/4/3 112/4/3 111/4/3
f 114/4/3 112/4/3 113/4/3
f 119/3/3 116/3/3 115/3/3
f 120/3/3 118/3/3 117/3/3
f 121/3/3 119/3/3 115/3/3
f 121/3/3 120/3/3 119/3/3
f 122/3/3 118/3/3 120/3/3
f 122/3/3 120/3/3 121/3/3
f 125/3/3 124/3/3 123/3/3
f 126/3/3 124/3/3 125/3/3
f 127/3/3 125/3/3 123/3/3
f 128/3/3 125/3/3 127/3/3
f 129/3/3 124/3/3 126/3/3
f 130/3/3 124/3/3 129/3/3
f 131/3/4 132/3/4 134/3/4
f 132/3/4 133/3/4 134/3/4
f 131/3/4 134/3/4 135/3/4
f 135/3/4 134/3/4 136/3/4
f 136/3/4 134/3/4 138/3/4
f 138/3/4 134/3/4 139/3/4
f 137/3/4 138/3/4 139/3/4
f 137/3/4 139/3/4 140/3/4
f 140/3/4 139/3/4 141/3/4
f 141/3/4 139/3/4 142/3/4
f 143/4/4 144/4/4 145/4/4
f 145/4/4 144/4/4 146/4/4
f 149/3/4 150/3/4 152/3/4
f 150/3/4 151/3/4 152/3/4
f 152/3/4 151/3/4 153/3/4
f 153/3/4 151/3/4 154/3/4
f 147/2/4 148/2/4 155/2/4
f 155/2/4 148/2/4 156/2/4
f 157/4/4 158/4/4 159/4/4
f 159/4/4 158/4/4 160/4/4
f 161/4/4 162/4/4 164/4/4
f 162/4/4 163/4/4 164/4/4
f 164/4/4 163/4/4 165/4/4
f 166/4/4 167/4/4 168/4/4
f 168/4/4 167/4/4 169/4/4
f 169/4/4 167/4/4 170/4/4
f 171/3/4 172/3/4 173/3/4
f 173/3/4 172/3/4 174/3/4
f 173/1/4 174/1/4 175/1/4
f 174/3/4 172/3/4 176/3/4
f 175/1/4 174/1/4 176/1/4
f 175/3/4 176/3/4 177/3/4
f 176/3/4 172/3/4 178/3/4
f 177/3/4 176/3/4 178/3/4
f 179/3/4 180/3/4 181/3/4
f 181/3/4 180/3/4 182/3/4
f 181/1/4 182/1/4 183/1/4
f 182/3/4 180/3/4 184/3/4
f 183/1/4 182/1/4 184/1/4
f 183/3/4 184/3/4 185/3/4
f 184/3/4 180/3/4 186/3/4
f 185/3/4 184/3/4 186/3/4
f 190/2/5 188/2/5 187/2/5
f 191/2/5 188/2/5 190/2/5
f 193/3/5 190/3/5 189/3/5
f 193/3/5 192/3/5 191/3/5
f 193/3/5 191/3/5 190/3/5
f 194/3/5 192/3/5 193/3/5
f 195/3/5 192/3/5 194/3/5
f 196/3/5 192/3/5 195/3/5
f 197/4/5 194/4/5 193/4/5
f 197/3/5 195/3/5 194/3/5
f 198/3/5 195/3/5 197/3/5
f 199/3/5 195/3/5 198/3/5
f 200/4/5 196/4/5 195/4/5
f 200/3/5 195/3/5 199/3/5
f 201/4/5 197/4/5 193/4/5
f 201/4/5 198/4/5 197/4/5
f 202/4/5 198/4/5 201/4/5
f 203/4/5 200/4/5 199/4/5
f 204/4/5 196/4/5 200/4/5
f 204/4/5 200/4/5 203/4/5
f 209/3/5 206/3/5 205/3/5
f 210/3/5 206/3/5 209/3/5
f 211/3/5 208/3/5 207/3/5
f 212/3/5 208/3/5 211/3/5
f 213/3/5 209/3/5 205/3/5
f 214/1/5 210/1/5 209/1/5
f 214/3/5 209/3/5 213/3/5
f 215/3/5 206/3/5 210/3/5
f 215/1/5 210/1/5 214/1/5
f 216/3/5 206/3/5 215/3/5
f 217/3/5 211/3/5 207/3/5
f 218/1/5 212/1/5 211/1/5
f 218/3/5 211/3/5 217/3/5
f 219/3/5 208/3/5 212/3/5
f 219/1/5 212/1/5 218/1/5
f 220/3/5 208/3/5 219/3/5
f 225/4/5 222/4/5 221/4/5
f 226/4/5 224/4/5 223/4/5
f 227/4/5 225/4/5 221/4/5
f 228/4/5 225/4/5 227/4/5
f 229/4/5 224/4/5 226/4/5
f 230/4/5 224/4/5 229/4/5
f 233/2/5 232/2/5 231/2/5
f 234/2/5 232/2/5 233/2/5
f 235/4/6 236/4/6 240/4/6
f 240/4/6 236/4/6 241/4/6
f 237/4/6 238/4/6 242/4/6
f 242/4/6 238/4/6 243/4/6
f 240/4/6 241/4/6 245/4/6
f 239/4/6 240/4/6 245/4/6
f 245/4/6 241/4/6 246/4/6
f 243/4/6 244/4/6 247/4/6
f 242/4/6 243/4/6 247/4/6
f 247/4/6 244/4/6 248/4/6
f 239/4/6 245/4/6 249/4/6
f 249/4/6 245/4/6 250/4/6
f 248/4/6 244/4/6 251/4/6
f 251/4/6 244/4/6 252/4/6
f 253/4/6 254/4/6 257/4/6
f 255/4/6 256/4/6 258/4/6
f 253/4/6 257/4/6 259/4/6
f 259/4/6 257/4/6 260/4/6
f 258/4/6 256/4/6 261/4/6
f 261/4/6 256/4/6 262/4/6
f 263/3/6 264/3/6 265/3/6
f 265/3/6 264/3/6 266/3/6
f 267/3/6 268/3/6 271/3/6
f 271/3/6 268/3/6 272/3/6
f 269/3/6 270/3/6 273/3/6
f 273/3/6 270/3/6 274/3/6
f 275/3/6 276/3/6 279/3/6
f 279/3/6 276/3/6 280/3/6
f 277/3/6 278/3/6 281/3/6
f 281/3/6 278/3/6 282/3/6
f 283/2/6 284/2/6 285/2/6
f 285/2/6 284/2/6 286/2/6
