# MagicaVoxel @ ephtracy

# material
mtllib stormrider.mtl
usemtl palette

# normals
vn -1 0 0
vn 1 0 0
vn 0 0 1
vn 0 0 -1
vn 0 -1 0
vn 0 1 0

# texcoords
vt 0.0292969 0.5
vt 0.0332031 0.5
vt 0.861328 0.5
vt 0.978516 0.5
vt 0.982422 0.5

# verts
v -5.5 2 -3
v -5.5 2 -6
v -5.5 3 2
v -5.5 3 -3
v -5.5 5 -1
v -5.5 5 -3
v -5.5 6 2
v -5.5 6 -1
v -5.5 7 -3
v -5.5 7 -6
v -3.5 0 5
v -3.5 0 4
v -3.5 0 -2
v -3.5 3 4
v -3.5 3 2
v -3.5 3 -2
v -3.5 6 2
v -3.5 6 -0
v -3.5 8 5
v -3.5 8 -0
v -2.5 0 6
v -2.5 0 5
v -2.5 8 5
v -2.5 8 -0
v -2.5 8 -1
v -2.5 9 6
v -2.5 9 -1
v -1.5 5 -0
v -1.5 5 -1
v -1.5 7 -0
v -1.5 7 -1
v 1.5 0 -1
v 1.5 0 -2
v 1.5 2 -3
v 1.5 2 -6
v 1.5 5 -1
v 1.5 5 -2
v 1.5 7 -3
v 1.5 7 -6
v 3.5 3 -2
v 3.5 3 -3
v 3.5 5 -0
v 3.5 5 -1
v 3.5 5 -2
v 3.5 5 -3
v 3.5 6 -0
v 3.5 6 -1
v -3.5 3 -2
v -3.5 3 -3
v -3.5 5 -0
v -3.5 5 -1
v -3.5 5 -2
v -3.5 5 -3
v -3.5 6 -0
v -3.5 6 -1
v -1.5 0 -1
v -1.5 0 -2
v -1.5 2 -3
v -1.5 2 -6
v -1.5 5 -1
v -1.5 5 -2
v -1.5 7 -3
v -1.5 7 -6
v 1.5 5 -0
v 1.5 5 -1
v 1.5 7 -0
v 1.5 7 -1
v 2.5 0 6
v 2.5 0 5
v 2.5 8 5
v 2.5 8 -0
v 2.5 8 -1
v 2.5 9 6
v 2.5 9 -1
v 3.5 0 5
v 3.5 0 4
v 3.5 0 -2
v 3.5 3 4
v 3.5 3 2
v 3.5 3 -2
v 3.5 6 2
v 3.5 6 -0
v 3.5 8 5
v 3.5 8 -0
v 5.5 2 -3
v 5.5 2 -6
v 5.5 3 2
v 5.5 3 -3
v 5.5 5 -1
v 5.5 5 -3
v 5.5 6 2
v 5.5 6 -1
v 5.5 7 -3
v 5.5 7 -6
v -2.5 0 6
v -2.5 9 6
v -1.5 2 6
v -1.5 9 6
v 1.5 2 6
v 1.5 9 6
v 2.5 0 6
v 2.5 9 6
v -3.5 0 5
v -3.5 8 5
v -2.5 0 5
v -2.5 8 5
v 2.5 0 5
v 2.5 8 5
v 3.5 0 5
v 3.5 8 5
v -5.5 3 2
v -5.5 6 2
v -3.5 3 2
v -3.5 6 2
v 3.5 3 2
v 3.5 6 2
v 5.5 3 2
v 5.5 6 2
v -5.5 2 -3
v -5.5 3 -3
v -5.5 5 -3
v -5.5 7 -3
v -3.5 3 -3
v -3.5 5 -3
v -1.5 2 -3
v -1.5 7 -3
v 1.5 2 -3
v 1.5 7 -3
v 3.5 3 -3
v 3.5 5 -3
v 5.5 2 -3
v 5.5 3 -3
v 5.5 5 -3
v 5.5 7 -3
v -3.5 5 -0
v -3.5 6 -0
v -3.5 8 -0
v -2.5 8 -0
v -1.5 5 -0
v -1.5 7 -0
v -1.5 8 -0
v 1.5 5 -0
v 1.5 7 -0
v 1.5 8 -0
v 2.5 8 -0
v 3.5 5 -0
v 3.5 6 -0
v 3.5 8 -0
v -5.5 5 -1
v -5.5 6 -1
v -3.5 5 -1
v -3.5 6 -1
v -2.5 8 -1
v -2.5 9 -1
v -1.5 0 -1
v -1.5 5 -1
v -1.5 7 -1
v -1.5 8 -1
v -1.5 9 -1
v 1.5 0 -1
v 1.5 5 -1
v 1.5 7 -1
v 1.5 8 -1
v 1.5 9 -1
v 2.5 8 -1
v 2.5 9 -1
v 3.5 5 -1
v 3.5 6 -1
v 5.5 5 -1
v 5.5 6 -1
v -3.5 0 -2
v -3.5 3 -2
v -3.5 5 -2
v -1.5 0 -2
v -1.5 5 -2
v 1.5 0 -2
v 1.5 5 -2
v 3.5 0 -2
v 3.5 3 -2
v 3.5 5 -2
v -5.5 2 -6
v -5.5 7 -6
v -4.5 2 -6
v -4.5 6 -6
v -2.5 2 -6
v -2.5 6 -6
v -1.5 2 -6
v -1.5 7 -6
v 1.5 2 -6
v 1.5 7 -6
v 2.5 2 -6
v 2.5 6 -6
v 4.5 2 -6
v 4.5 6 -6
v 5.5 2 -6
v 5.5 7 -6
v -2.5 0 6
v 2.5 0 6
v -3.5 0 5
v -2.5 0 5
v 2.5 0 5
v 3.5 0 5
v -3.5 0 4
v -2.5 0 4
v 2.5 0 4
v 3.5 0 4
v -2.5 0 -1
v -1.5 0 -1
v 1.5 0 -1
v 2.5 0 -1
v -3.5 0 -2
v -1.5 0 -2
v 1.5 0 -2
v 3.5 0 -2
v -5.5 2 -3
v -1.5 2 -3
v 1.5 2 -3
v 5.5 2 -3
v -4.5 2 -5
v -2.5 2 -5
v 2.5 2 -5
v 4.5 2 -5
v -5.5 2 -6
v -4.5 2 -6
v -2.5 2 -6
v -1.5 2 -6
v 1.5 2 -6
v 2.5 2 -6
v 4.5 2 -6
v 5.5 2 -6
v -5.5 3 2
v -3.5 3 2
v 3.5 3 2
v 5.5 3 2
v -3.5 3 -2
v 3.5 3 -2
v -5.5 3 -3
v -3.5 3 -3
v 3.5 3 -3
v 5.5 3 -3
v -2.5 8 -0
v -1.5 8 -0
v 1.5 8 -0
v 2.5 8 -0
v -2.5 8 -1
v -1.5 8 -1
v 1.5 8 -1
v 2.5 8 -1
v -3.5 5 -0
v -1.5 5 -0
v 1.5 5 -0
v 3.5 5 -0
v -5.5 5 -1
v -3.5 5 -1
v -1.5 5 -1
v 1.5 5 -1
v 3.5 5 -1
v 5.5 5 -1
v -3.5 5 -2
v -1.5 5 -2
v 1.5 5 -2
v 3.5 5 -2
v -5.5 5 -3
v -3.5 5 -3
v 3.5 5 -3
v 5.5 5 -3
v -5.5 6 2
v -3.5 6 2
v 3.5 6 2
v 5.5 6 2
v -3.5 6 -0
v 3.5 6 -0
v -5.5 6 -1
v -3.5 6 -1
v 3.5 6 -1
v 5.5 6 -1
v -1.5 7 -0
v 1.5 7 -0
v -1.5 7 -1
v 1.5 7 -1
v -5.5 7 -3
v -1.5 7 -3
v 1.5 7 -3
v 5.5 7 -3
v -5.5 7 -6
v -1.5 7 -6
v 1.5 7 -6
v 5.5 7 -6
v -3.5 8 5
v -2.5 8 5
v 2.5 8 5
v 3.5 8 5
v -3.5 8 -0
v -2.5 8 -0
v 2.5 8 -0
v 3.5 8 -0
v -2.5 9 6
v -1.5 9 6
v 1.5 9 6
v 2.5 9 6
v -2.5 9 -1
v -1.5 9 -1
v 1.5 9 -1
v 2.5 9 -1

# faces
f 4/4/1 2/4/1 1/4/1
f 5/5/1 4/5/1 3/5/1
f 6/4/1 2/4/1 4/4/1
f 6/5/1 4/5/1 5/5/1
f 7/5/1 5/5/1 3/5/1
f 8/5/1 5/5/1 7/5/1
f 9/4/1 2/4/1 6/4/1
f 10/4/1 2/4/1 9/4/1
f 14/4/1 12/4/1 11/4/1
f 14/5/1 13/5/1 12/5/1
f 15/5/1 13/5/1 14/5/1
f 16/5/1 13/5/1 15/5/1
f 17/4/1 15/4/1 14/4/1
f 19/4/1 14/4/1 11/4/1
f 19/4/1 18/4/1 17/4/1
f 19/4/1 17/4/1 14/4/1
f 20/4/1 18/4/1 19/4/1
f 23/3/1 22/3/1 21/3/1
f 26/3/1 23/3/1 21/3/1
f 26/3/1 25/3/1 24/3/1
f 26/3/1 24/3/1 23/3/1
f 27/3/1 25/3/1 26/3/1
f 30/4/1 29/4/1 28/4/1
f 31/4/1 29/4/1 30/4/1
f 36/5/1 33/5/1 32/5/1
f 37/5/1 33/5/1 36/5/1
f 38/4/1 35/4/1 34/4/1
f 39/4/1 35/4/1 38/4/1
f 44/5/1 41/5/1 40/5/1
f 45/5/1 41/5/1 44/5/1
f 46/5/1 43/5/1 42/5/1
f 47/5/1 43/5/1 46/5/1
f 48/5/2 49/5/2 52/5/2
f 52/5/2 49/5/2 53/5/2
f 50/5/2 51/5/2 54/5/2
f 54/5/2 51/5/2 55/5/2
f 56/5/2 57/5/2 60/5/2
f 60/5/2 57/5/2 61/5/2
f 58/4/2 59/4/2 62/4/2
f 62/4/2 59/4/2 63/4/2
f 64/4/2 65/4/2 66/4/2
f 66/4/2 65/4/2 67/4/2
f 68/3/2 69/3/2 70/3/2
f 68/3/2 70/3/2 73/3/2
f 71/3/2 72/3/2 73/3/2
f 70/3/2 71/3/2 73/3/2
f 73/3/2 72/3/2 74/3/2
f 75/4/2 76/4/2 78/4/2
f 76/5/2 77/5/2 78/5/2
f 78/5/2 77/5/2 79/5/2
f 79/5/2 77/5/2 80/5/2
f 78/4/2 79/4/2 81/4/2
f 75/4/2 78/4/2 83/4/2
f 81/4/2 82/4/2 83/4/2
f 78/4/2 81/4/2 83/4/2
f 83/4/2 82/4/2 84/4/2
f 85/4/2 86/4/2 88/4/2
f 87/5/2 88/5/2 89/5/2
f 88/4/2 86/4/2 90/4/2
f 89/5/2 88/5/2 90/5/2
f 87/5/2 89/5/2 91/5/2
f 91/5/2 89/5/2 92/5/2
f 90/4/2 86/4/2 93/4/2
f 93/4/2 86/4/2 94/4/2
f 97/3/3 96/3/3 95/3/3
f 98/3/3 96/3/3 97/3/3
f 99/3/3 97/3/3 95/3/3
f 99/2/3 98/2/3 97/2/3
f 100/2/3 98/2/3 99/2/3
f 101/3/3 99/3/3 95/3/3
f 101/3/3 100/3/3 99/3/3
f 102/3/3 100/3/3 101/3/3
f 105/4/3 104/4/3 103/4/3
f 106/4/3 104/4/3 105/4/3
f 109/4/3 108/4/3 107/4/3
f 110/4/3 108/4/3 109/4/3
f 113/5/3 112/5/3 111/5/3
f 114/5/3 112/5/3 113/5/3
f 117/5/3 116/5/3 115/5/3
f 118/5/3 116/5/3 117/5/3
f 123/4/3 120/4/3 119/4/3
f 124/4/3 122/4/3 121/4/3
f 125/4/3 123/4/3 119/4/3
f 125/4/3 124/4/3 123/4/3
f 126/4/3 122/4/3 124/4/3
f 126/4/3 124/4/3 125/4/3
f 129/4/3 128/4/3 127/4/3
f 130/4/3 128/4/3 129/4/3
f 131/4/3 129/4/3 127/4/3
f 132/4/3 129/4/3 131/4/3
f 133/4/3 128/4/3 130/4/3
f 134/4/3 128/4/3 133/4/3
f 135/4/4 136/4/4 138/4/4
f 136/4/4 137/4/4 138/4/4
f 135/4/4 138/4/4 139/4/4
f 139/4/4 138/4/4 140/4/4
f 140/4/4 138/4/4 141/4/4
f 140/4/4 141/4/4 143/4/4
f 143/4/4 141/4/4 144/4/4
f 142/4/4 143/4/4 145/4/4
f 143/4/4 144/4/4 145/4/4
f 142/4/4 145/4/4 146/4/4
f 146/4/4 145/4/4 147/4/4
f 147/4/4 145/4/4 148/4/4
f 149/5/4 150/5/4 151/5/4
f 151/5/4 150/5/4 152/5/4
f 153/3/4 154/3/4 158/3/4
f 158/3/4 154/3/4 159/3/4
f 156/4/4 157/4/4 160/4/4
f 155/4/4 156/4/4 160/4/4
f 160/4/4 157/4/4 161/4/4
f 161/4/4 157/4/4 162/4/4
f 158/2/4 159/2/4 163/2/4
f 163/2/4 159/2/4 164/2/4
f 163/3/4 164/3/4 165/3/4
f 165/3/4 164/3/4 166/3/4
f 167/5/4 168/5/4 169/5/4
f 169/5/4 168/5/4 170/5/4
f 171/5/4 172/5/4 174/5/4
f 172/5/4 173/5/4 174/5/4
f 174/5/4 173/5/4 175/5/4
f 176/5/4 177/5/4 178/5/4
f 178/5/4 177/5/4 179/5/4
f 179/5/4 177/5/4 180/5/4
f 181/4/4 182/4/4 183/4/4
f 183/4/4 182/4/4 184/4/4
f 183/1/4 184/1/4 185/1/4
f 184/4/4 182/4/4 186/4/4
f 185/1/4 184/1/4 186/1/4
f 185/4/4 186/4/4 187/4/4
f 186/4/4 182/4/4 188/4/4
f 187/4/4 186/4/4 188/4/4
f 189/4/4 190/4/4 191/4/4
f 191/4/4 190/4/4 192/4/4
f 191/1/4 192/1/4 193/1/4
f 192/4/4 190/4/4 194/4/4
f 193/1/4 192/1/4 194/1/4
f 193/4/4 194/4/4 195/4/4
f 194/4/4 190/4/4 196/4/4
f 195/4/4 194/4/4 196/4/4
f 200/3/5 198/3/5 197/3/5
f 201/3/5 198/3/5 200/3/5
f 203/4/5 200/4/5 199/4/5
f 203/4/5 202/4/5 201/4/5
f 203/4/5 201/4/5 200/4/5
f 204/4/5 202/4/5 203/4/5
f 205/4/5 202/4/5 204/4/5
f 206/4/5 202/4/5 205/4/5
f 207/5/5 204/5/5 203/5/5
f 207/4/5 205/4/5 204/4/5
f 208/4/5 205/4/5 207/4/5
f 209/4/5 205/4/5 208/4/5
f 210/5/5 206/5/5 205/5/5
f 210/4/5 205/4/5 209/4/5
f 211/5/5 207/5/5 203/5/5
f 211/5/5 208/5/5 207/5/5
f 212/5/5 208/5/5 211/5/5
f 213/5/5 210/5/5 209/5/5
f 214/5/5 206/5/5 210/5/5
f 214/5/5 210/5/5 213/5/5
f 219/4/5 216/4/5 215/4/5
f 220/4/5 216/4/5 219/4/5
f 221/4/5 218/4/5 217/4/5
f 222/4/5 218/4/5 221/4/5
f 223/4/5 219/4/5 215/4/5
f 224/1/5 220/1/5 219/1/5
f 224/4/5 219/4/5 223/4/5
f 225/4/5 216/4/5 220/4/5
f 225/1/5 220/1/5 224/1/5
f 226/4/5 216/4/5 225/4/5
f 227/4/5 221/4/5 217/4/5
f 228/1/5 222/1/5 221/1/5
f 228/4/5 221/4/5 227/4/5
f 229/4/5 218/4/5 222/4/5
f 229/1/5 222/1/5 228/1/5
f 230/4/5 218/4/5 229/4/5
f 235/5/5 232/5/5 231/5/5
f 236/5/5 234/5/5 233/5/5
f 237/5/5 235/5/5 231/5/5
f 238/5/5 235/5/5 237/5/5
f 239/5/5 234/5/5 236/5/5
f 240/5/5 234/5/5 239/5/5
f 245/3/5 242/3/5 241/3/5
f 246/2/5 243/2/5 242/2/5
f 246/3/5 242/3/5 245/3/5
f 247/3/5 244/3/5 243/3/5
f 247/2/5 243/2/5 246/2/5
f 248/3/5 244/3/5 247/3/5
f 249/5/6 250/5/6 254/5/6
f 254/5/6 250/5/6 255/5/6
f 251/5/6 252/5/6 256/5/6
f 256/5/6 252/5/6 257/5/6
f 254/5/6 255/5/6 259/5/6
f 253/5/6 254/5/6 259/5/6
f 259/5/6 255/5/6 260/5/6
f 257/5/6 258/5/6 261/5/6
f 256/5/6 257/5/6 261/5/6
f 261/5/6 258/5/6 262/5/6
f 253/5/6 259/5/6 263/5/6
f 263/5/6 259/5/6 264/5/6
f 262/5/6 258/5/6 265/5/6
f 265/5/6 258/5/6 266/5/6
f 267/5/6 268/5/6 271/5/6
f 269/5/6 270/5/6 272/5/6
f 267/5/6 271/5/6 273/5/6
f 273/5/6 271/5/6 274/5/6
f 272/5/6 270/5/6 275/5/6
f 275/5/6 270/5/6 276/5/6
f 277/4/6 278/4/6 279/4/6
f 279/4/6 278/4/6 280/4/6
f 281/4/6 282/4/6 285/4/6
f 285/4/6 282/4/6 286/4/6
f 283/4/6 284/4/6 287/4/6
f 287/4/6 284/4/6 288/4/6
f 289/4/6 290/4/6 293/4/6
f 293/4/6 290/4/6 294/4/6
f 291/4/6 292/4/6 295/4/6
f 295/4/6 292/4/6 296/4/6
f 297/3/6 298/3/6 301/3/6
f 298/2/6 299/2/6 302/2/6
f 301/3/6 298/3/6 302/3/6
f 299/3/6 300/3/6 303/3/6
f 302/2/6 299/2/6 303/2/6
f 303/3/6 300/3/6 304/3/6
