# MagicaVoxel @ ephtracy

# material
mtllib stormrider_b.mtl
usemtl palette

# normals
vn -1 0 0
vn 1 0 0
vn 0 0 1
vn 0 0 -1
vn 0 -1 0
vn 0 1 0

# texcoords
vt 0.0292969 0.5
vt 0.0332031 0.5
vt 0.0371094 0.5
vt 0.833984 0.5
vt 0.978516 0.5
vt 0.982422 0.5

# verts
v -5.5 2 -3
v -5.5 2 -6
v -5.5 3 2
v -5.5 3 -3
v -5.5 5 -1
v -5.5 5 -3
v -5.5 6 2
v -5.5 6 -1
v -5.5 7 -3
v -5.5 7 -6
v -3.5 0 5
v -3.5 0 4
v -3.5 0 -2
v -3.5 3 4
v -3.5 3 2
v -3.5 3 -2
v -3.5 6 2
v -3.5 6 -0
v -3.5 8 5
v -3.5 8 -0
v -2.5 0 6
v -2.5 0 5
v -2.5 8 5
v -2.5 8 -0
v -2.5 8 -1
v -2.5 9 6
v -2.5 9 -1
v -1.5 5 -0
v -1.5 5 -1
v -1.5 7 -0
v -1.5 7 -1
v 1.5 0 -1
v 1.5 0 -2
v 1.5 2 -3
v 1.5 2 -6
v 1.5 5 -1
v 1.5 5 -2
v 1.5 7 -3
v 1.5 7 -6
v 3.5 3 -2
v 3.5 3 -3
v 3.5 5 -0
v 3.5 5 -1
v 3.5 5 -2
v 3.5 5 -3
v 3.5 6 -0
v 3.5 6 -1
v -3.5 3 -2
v -3.5 3 -3
v -3.5 5 -0
v -3.5 5 -1
v -3.5 5 -2
v -3.5 5 -3
v -3.5 6 -0
v -3.5 6 -1
v -1.5 0 -1
v -1.5 0 -2
v -1.5 2 -3
v -1.5 2 -6
v -1.5 5 -1
v -1.5 5 -2
v -1.5 7 -3
v -1.5 7 -6
v 1.5 5 -0
v 1.5 5 -1
v 1.5 7 -0
v 1.5 7 -1
v 2.5 0 6
v 2.5 0 5
v 2.5 8 5
v 2.5 8 -0
v 2.5 8 -1
v 2.5 9 6
v 2.5 9 -1
v 3.5 0 5
v 3.5 0 4
v 3.5 0 -2
v 3.5 3 4
v 3.5 3 2
v 3.5 3 -2
v 3.5 6 2
v 3.5 6 -0
v 3.5 8 5
v 3.5 8 -0
v 5.5 2 -3
v 5.5 2 -6
v 5.5 3 2
v 5.5 3 -3
v 5.5 5 -1
v 5.5 5 -3
v 5.5 6 2
v 5.5 6 -1
v 5.5 7 -3
v 5.5 7 -6
v -2.5 0 6
v -2.5 9 6
v -1.5 2 6
v -1.5 9 6
v 1.5 2 6
v 1.5 9 6
v 2.5 0 6
v 2.5 9 6
v -3.5 0 5
v -3.5 8 5
v -2.5 0 5
v -2.5 8 5
v 2.5 0 5
v 2.5 8 5
v 3.5 0 5
v 3.5 8 5
v -5.5 3 2
v -5.5 6 2
v -3.5 3 2
v -3.5 6 2
v 3.5 3 2
v 3.5 6 2
v 5.5 3 2
v 5.5 6 2
v -5.5 2 -3
v -5.5 3 -3
v -5.5 5 -3
v -5.5 7 -3
v -3.5 3 -3
v -3.5 5 -3
v -1.5 2 -3
v -1.5 7 -3
v 1.5 2 -3
v 1.5 7 -3
v 3.5 3 -3
v 3.5 5 -3
v 5.5 2 -3
v 5.5 3 -3
v 5.5 5 -3
v 5.5 7 -3
v -3.5 5 -0
v -3.5 6 -0
v -3.5 8 -0
v -2.5 8 -0
v -1.5 5 -0
v -1.5 7 -0
v -1.5 8 -0
v 1.5 5 -0
v 1.5 7 -0
v 1.5 8 -0
v 2.5 8 -0
v 3.5 5 -0
v 3.5 6 -0
v 3.5 8 -0
v -5.5 5 -1
v -5.5 6 -1
v -3.5 5 -1
v -3.5 6 -1
v -2.5 8 -1
v -2.5 9 -1
v -1.5 0 -1
v -1.5 5 -1
v -1.5 7 -1
v -1.5 8 -1
v -1.5 9 -1
v 1.5 0 -1
v 1.5 5 -1
v 1.5 7 -1
v 1.5 8 -1
v 1.5 9 -1
v 2.5 8 -1
v 2.5 9 -1
v 3.5 5 -1
v 3.5 6 -1
v 5.5 5 -1
v 5.5 6 -1
v -3.5 0 -2
v -3.5 3 -2
v -3.5 5 -2
v -1.5 0 -2
v -1.5 5 -2
v 1.5 0 -2
v 1.5 5 -2
v 3.5 0 -2
v 3.5 3 -2
v 3.5 5 -2
v -5.5 2 -6
v -5.5 7 -6
v -4.5 2 -6
v -4.5 6 -6
v -2.5 2 -6
v -2.5 6 -6
v -1.5 2 -6
v -1.5 7 -6
v 1.5 2 -6
v 1.5 7 -6
v 2.5 2 -6
v 2.5 6 -6
v 4.5 2 -6
v 4.5 6 -6
v 5.5 2 -6
v 5.5 7 -6
v -2.5 0 6
v 2.5 0 6
v -3.5 0 5
v -2.5 0 5
v 2.5 0 5
v 3.5 0 5
v -3.5 0 4
v -2.5 0 4
v 2.5 0 4
v 3.5 0 4
v -2.5 0 -1
v -1.5 0 -1
v 1.5 0 -1
v 2.5 0 -1
v -3.5 0 -2
v -1.5 0 -2
v 1.5 0 -2
v 3.5 0 -2
v -5.5 2 -3
v -1.5 2 -3
v 1.5 2 -3
v 5.5 2 -3
v -4.5 2 -5
v -2.5 2 -5
v 2.5 2 -5
v 4.5 2 -5
v -5.5 2 -6
v -4.5 2 -6
v -2.5 2 -6
v -1.5 2 -6
v 1.5 2 -6
v 2.5 2 -6
v 4.5 2 -6
v 5.5 2 -6
v -5.5 3 2
v -3.5 3 2
v 3.5 3 2
v 5.5 3 2
v -3.5 3 -2
v 3.5 3 -2
v -5.5 3 -3
v -3.5 3 -3
v 3.5 3 -3
v 5.5 3 -3
v -2.5 8 -0
v -1.5 8 -0
v 1.5 8 -0
v 2.5 8 -0
v -2.5 8 -1
v -1.5 8 -1
v 1.5 8 -1
v 2.5 8 -1
v -3.5 5 -0
v -1.5 5 -0
v 1.5 5 -0
v 3.5 5 -0
v -5.5 5 -1
v -3.5 5 -1
v -1.5 5 -1
v 1.5 5 -1
v 3.5 5 -1
v 5.5 5 -1
v -3.5 5 -2
v -1.5 5 -2
v 1.5 5 -2
v 3.5 5 -2
v -5.5 5 -3
v -3.5 5 -3
v 3.5 5 -3
v 5.5 5 -3
v -5.5 6 2
v -3.5 6 2
v 3.5 6 2
v 5.5 6 2
v -3.5 6 -0
v 3.5 6 -0
v -5.5 6 -1
v -3.5 6 -1
v 3.5 6 -1
v 5.5 6 -1
v -1.5 7 -0
v 1.5 7 -0
v -1.5 7 -1
v 1.5 7 -1
v -5.5 7 -3
v -1.5 7 -3
v 1.5 7 -3
v 5.5 7 -3
v -5.5 7 -6
v -1.5 7 -6
v 1.5 7 -6
v 5.5 7 -6
v -3.5 8 5
v -2.5 8 5
v 2.5 8 5
v 3.5 8 5
v -3.5 8 -0
v -2.5 8 -0
v 2.5 8 -0
v 3.5 8 -0
v -2.5 9 6
v -1.5 9 6
v 1.5 9 6
v 2.5 9 6
v -2.5 9 -1
v -1.5 9 -1
v 1.5 9 -1
v 2.5 9 -1

# faces
f 4/5/1 2/5/1 1/5/1
f 5/6/1 4/6/1 3/6/1
f 6/5/1 2/5/1 4/5/1
f 6/6/1 4/6/1 5/6/1
f 7/6/1 5/6/1 3/6/1
f 8/6/1 5/6/1 7/6/1
f 9/5/1 2/5/1 6/5/1
f 10/5/1 2/5/1 9/5/1
f 14/5/1 12/5/1 11/5/1
f 14/6/1 13/6/1 12/6/1
f 15/6/1 13/6/1 14/6/1
f 16/6/1 13/6/1 15/6/1
f 17/5/1 15/5/1 14/5/1
f 19/5/1 14/5/1 11/5/1
f 19/5/1 18/5/1 17/5/1
f 19/5/1 17/5/1 14/5/1
f 20/5/1 18/5/1 19/5/1
f 23/4/1 22/4/1 21/4/1
f 26/4/1 23/4/1 21/4/1
f 26/4/1 25/4/1 24/4/1
f 26/4/1 24/4/1 23/4/1
f 27/4/1 25/4/1 26/4/1
f 30/5/1 29/5/1 28/5/1
f 31/5/1 29/5/1 30/5/1
f 36/6/1 33/6/1 32/6/1
f 37/6/1 33/6/1 36/6/1
f 38/5/1 35/5/1 34/5/1
f 39/5/1 35/5/1 38/5/1
f 44/6/1 41/6/1 40/6/1
f 45/6/1 41/6/1 44/6/1
f 46/6/1 43/6/1 42/6/1
f 47/6/1 43/6/1 46/6/1
f 48/6/2 49/6/2 52/6/2
f 52/6/2 49/6/2 53/6/2
f 50/6/2 51/6/2 54/6/2
f 54/6/2 51/6/2 55/6/2
f 56/6/2 57/6/2 60/6/2
f 60/6/2 57/6/2 61/6/2
f 58/5/2 59/5/2 62/5/2
f 62/5/2 59/5/2 63/5/2
f 64/5/2 65/5/2 66/5/2
f 66/5/2 65/5/2 67/5/2
f 68/4/2 69/4/2 70/4/2
f 68/4/2 70/4/2 73/4/2
f 71/4/2 72/4/2 73/4/2
f 70/4/2 71/4/2 73/4/2
f 73/4/2 72/4/2 74/4/2
f 75/5/2 76/5/2 78/5/2
f 76/6/2 77/6/2 78/6/2
f 78/6/2 77/6/2 79/6/2
f 79/6/2 77/6/2 80/6/2
f 78/5/2 79/5/2 81/5/2
f 75/5/2 78/5/2 83/5/2
f 81/5/2 82/5/2 83/5/2
f 78/5/2 81/5/2 83/5/2
f 83/5/2 82/5/2 84/5/2
f 85/5/2 86/5/2 88/5/2
f 87/6/2 88/6/2 89/6/2
f 88/5/2 86/5/2 90/5/2
f 89/6/2 88/6/2 90/6/2
f 87/6/2 89/6/2 91/6/2
f 91/6/2 89/6/2 92/6/2
f 90/5/2 86/5/2 93/5/2
f 93/5/2 86/5/2 94/5/2
f 97/4/3 96/4/3 95/4/3
f 98/4/3 96/4/3 97/4/3
f 99/4/3 97/4/3 95/4/3
f 99/3/3 98/3/3 97/3/3
f 100/3/3 98/3/3 99/3/3
f 101/4/3 99/4/3 95/4/3
f 101/4/3 100/4/3 99/4/3
f 102/4/3 100/4/3 101/4/3
f 105/5/3 104/5/3 103/5/3
f 106/5/3 104/5/3 105/5/3
f 109/5/3 108/5/3 107/5/3
f 110/5/3 108/5/3 109/5/3
f 113/6/3 112/6/3 111/6/3
f 114/6/3 112/6/3 113/6/3
f 117/6/3 116/6/3 115/6/3
f 118/6/3 116/6/3 117/6/3
f 123/5/3 120/5/3 119/5/3
f 124/5/3 122/5/3 121/5/3
f 125/5/3 123/5/3 119/5/3
f 125/5/3 124/5/3 123/5/3
f 126/5/3 122/5/3 124/5/3
f 126/5/3 124/5/3 125/5/3
f 129/5/3 128/5/3 127/5/3
f 130/5/3 128/5/3 129/5/3
f 131/5/3 129/5/3 127/5/3
f 132/5/3 129/5/3 131/5/3
f 133/5/3 128/5/3 130/5/3
f 134/5/3 128/5/3 133/5/3
f 135/5/4 136/5/4 138/5/4
f 136/5/4 137/5/4 138/5/4
f 135/5/4 138/5/4 139/5/4
f 139/5/4 138/5/4 140/5/4
f 140/5/4 138/5/4 141/5/4
f 140/5/4 141/5/4 143/5/4
f 143/5/4 141/5/4 144/5/4
f 142/5/4 143/5/4 145/5/4
f 143/5/4 144/5/4 145/5/4
f 142/5/4 145/5/4 146/5/4
f 146/5/4 145/5/4 147/5/4
f 147/5/4 145/5/4 148/5/4
f 149/6/4 150/6/4 151/6/4
f 151/6/4 150/6/4 152/6/4
f 153/4/4 154/4/4 158/4/4
f 158/4/4 154/4/4 159/4/4
f 156/5/4 157/5/4 160/5/4
f 155/5/4 156/5/4 160/5/4
f 160/5/4 157/5/4 161/5/4
f 161/5/4 157/5/4 162/5/4
f 158/3/4 159/3/4 163/3/4
f 163/3/4 159/3/4 164/3/4
f 163/4/4 164/4/4 165/4/4
f 165/4/4 164/4/4 166/4/4
f 167/6/4 168/6/4 169/6/4
f 169/6/4 168/6/4 170/6/4
f 171/6/4 172/6/4 174/6/4
f 172/6/4 173/6/4 174/6/4
f 174/6/4 173/6/4 175/6/4
f 176/6/4 177/6/4 178/6/4
f 178/6/4 177/6/4 179/6/4
f 179/6/4 177/6/4 180/6/4
f 181/5/4 182/5/4 183/5/4
f 183/5/4 182/5/4 184/5/4
f 183/1/4 184/1/4 185/1/4
f 184/5/4 182/5/4 186/5/4
f 185/1/4 184/1/4 186/1/4
f 185/5/4 186/5/4 187/5/4
f 186/5/4 182/5/4 188/5/4
f 187/5/4 186/5/4 188/5/4
f 189/5/4 190/5/4 191/5/4
f 191/5/4 190/5/4 192/5/4
f 191/1/4 192/1/4 193/1/4
f 192/5/4 190/5/4 194/5/4
f 193/1/4 192/1/4 194/1/4
f 193/5/4 194/5/4 195/5/4
f 194/5/4 190/5/4 196/5/4
f 195/5/4 194/5/4 196/5/4
f 200/4/5 198/4/5 197/4/5
f 201/4/5 198/4/5 200/4/5
f 203/5/5 200/5/5 199/5/5
f 203/5/5 202/5/5 201/5/5
f 203/5/5 201/5/5 200/5/5
f 204/5/5 202/5/5 203/5/5
f 205/5/5 202/5/5 204/5/5
f 206/5/5 202/5/5 205/5/5
f 207/6/5 204/6/5 203/6/5
f 207/5/5 205/5/5 204/5/5
f 208/5/5 205/5/5 207/5/5
f 209/5/5 205/5/5 208/5/5
f 210/6/5 206/6/5 205/6/5
f 210/5/5 205/5/5 209/5/5
f 211/6/5 207/6/5 203/6/5
f 211/6/5 208/6/5 207/6/5
f 212/6/5 208/6/5 211/6/5
f 213/6/5 210/6/5 209/6/5
f 214/6/5 206/6/5 210/6/5
f 214/6/5 210/6/5 213/6/5
f 219/5/5 216/5/5 215/5/5
f 220/5/5 216/5/5 219/5/5
f 221/5/5 218/5/5 217/5/5
f 222/5/5 218/5/5 221/5/5
f 223/5/5 219/5/5 215/5/5
f 224/1/5 220/1/5 219/1/5
f 224/5/5 219/5/5 223/5/5
f 225/5/5 216/5/5 220/5/5
f 225/1/5 220/1/5 224/1/5
f 226/5/5 216/5/5 225/5/5
f 227/5/5 221/5/5 217/5/5
f 228/1/5 222/1/5 221/1/5
f 228/5/5 221/5/5 227/5/5
f 229/5/5 218/5/5 222/5/5
f 229/1/5 222/1/5 228/1/5
f 230/5/5 218/5/5 229/5/5
f 235/6/5 232/6/5 231/6/5
f 236/6/5 234/6/5 233/6/5
f 237/6/5 235/6/5 231/6/5
f 238/6/5 235/6/5 237/6/5
f 239/6/5 234/6/5 236/6/5
f 240/6/5 234/6/5 239/6/5
f 245/4/5 242/4/5 241/4/5
f 246/3/5 243/3/5 242/3/5
f 246/4/5 242/4/5 245/4/5
f 247/4/5 244/4/5 243/4/5
f 247/3/5 243/3/5 246/3/5
f 248/4/5 244/4/5 247/4/5
f 249/6/6 250/6/6 254/6/6
f 254/6/6 250/6/6 255/6/6
f 251/6/6 252/6/6 256/6/6
f 256/6/6 252/6/6 257/6/6
f 254/6/6 255/6/6 259/6/6
f 253/6/6 254/6/6 259/6/6
f 259/6/6 255/6/6 260/6/6
f 257/6/6 258/6/6 261/6/6
f 256/6/6 257/6/6 261/6/6
f 261/6/6 258/6/6 262/6/6
f 253/6/6 259/6/6 263/6/6
f 263/6/6 259/6/6 264/6/6
f 262/6/6 258/6/6 265/6/6
f 265/6/6 258/6/6 266/6/6
f 267/6/6 268/6/6 271/6/6
f 269/6/6 270/6/6 272/6/6
f 267/6/6 271/6/6 273/6/6
f 273/6/6 271/6/6 274/6/6
f 272/6/6 270/6/6 275/6/6
f 275/6/6 270/6/6 276/6/6
f 277/5/6 278/5/6 279/5/6
f 279/5/6 278/5/6 280/5/6
f 281/5/6 282/5/6 285/5/6
f 285/5/6 282/5/6 286/5/6
f 283/5/6 284/5/6 287/5/6
f 287/5/6 284/5/6 288/5/6
f 289/5/6 290/5/6 293/5/6
f 293/5/6 290/5/6 294/5/6
f 291/5/6 292/5/6 295/5/6
f 295/5/6 292/5/6 296/5/6
f 297/4/6 298/4/6 301/4/6
f 298/3/6 299/3/6 302/3/6
f 301/4/6 298/4/6 302/4/6
f 299/4/6 300/4/6 303/4/6
f 302/3/6 299/3/6 303/3/6
f 303/4/6 300/4/6 304/4/6
